# xmcd
#
# Track frame offsets: 
#        150
#        13461
#        20566
#        28435
#        41864
#        54893
#        66833
#        76016
#        88024
#        99135
#        107235
#        120977
#        134774
#        143401
#        154502
#
# Disc length: 2206 seconds
#
# Revision: 0
# Processed by: cddbd v1.5.1PL0 Copyright (c) Steve Scherf et al.
# Submitted via: ExactAudioCopy v0.95a4
#
DISCID=c1089c0f
DTITLE=The Oak Ridge Boys - Lead Me To Calvary
DYEAR=2002
DGENRE=Christian Rock
TTITLE0=You'll Never Walk Alone
TTITLE1=I Know
TTITLE2=I Asked The Lord
TTITLE3=Lead Me To Calvary
TTITLE4=The Old Couontry Church
TTITLE5=Gods Hands
TTITLE6=Less Of Me
TTITLE7=No One Cared So Much
TTITLE8=I'll Wake Up On The Other Side
TTITLE9=River Of Life
TTITLE10=Gypsy Boy
TTITLE11=Angels Must Have Cried
TTITLE12=A Day Of Rejoicing
TTITLE13=It's Different Now
TTITLE14=Welcome Home
EXTD=
EXTT0=
EXTT1=
EXTT2=
EXTT3=
EXTT4=
EXTT5=
EXTT6=
EXTT7=
EXTT8=
EXTT9=
EXTT10=
EXTT11=
EXTT12=
EXTT13=
EXTT14=
PLAYORDER=
